# xmcd
#
# Track frame offsets:
#	150
#	21045
#	37868
#	61801
#	79944
#	100943
#	118307
#	136952
#	154075
#	173087
#	195251
#	217856
#	238533
#	257167
#
# Disc length: 3626 seconds
#
# Revision: 0
# Processed by: cddbd v1.5.2PL0 Copyright (c) Steve Scherf et al.
# Submitted via: audiograbber 1.83.01
#
DISCID=af0e280e
DTITLE=Hill, Faith - Cry
DYEAR=2002
DGENRE=Pop
TTITLE0=Free
TTITLE1=Cry
TTITLE2=One
TTITLE3=When the lights go down
TTITLE4=Beautiful
TTITLE5=Unsavable
TTITLE6=Baby you belong
TTITLE7=If you're gonna fly away
TTITLE8=Stronger
TTITLE9=If this is the end
TTITLE10=This is me
TTITLE11=Back to you
TTITLE12=I think I will
TTITLE13=You're still here
EXTD=
EXTT0=
EXTT1=
EXTT2=
EXTT3=
EXTT4=
EXTT5=
EXTT6=
EXTT7=
EXTT8=
EXTT9=
EXTT10=
EXTT11=
EXTT12=
EXTT13=
PLAYORDER=
